Simulation
nRows=36
nColumns=15
endheader
time  TH_x TH_y TH_z SC_y  SC_z  SC_x  AC_y  AC_z  AC_x  GH_y  GH_z  GH_yy  EL_x  PS_y
0.0  0.000000  0.000000  0.000000  -29.721470499631884  -0.7948712230279678  1.5827452963680533  56.63483995421256  4.181728529975269  -7.59440297391013  24.520438050417944  -5.675356007257688  22.127917061823982  25.518474319772057  0.000000
0.034  0.000000  0.000000  0.000000  -29.64658308938484  -0.9435241762067298  1.6844009204517711  56.90234586088769  4.16297610272009  -7.545568791327693  24.809923400181475  -4.644477735303198  20.902520758241685  25.60803405474424  0.000000
0.068  0.000000  0.000000  0.000000  -29.438395895900186  -1.0262214535199161  1.804764816801842  57.14919958104933  4.027824295736079  -7.557592123458014  25.470498062395308  -3.41259495968709  19.193502640400556  25.69504409652725  0.000000
0.10200000000000001  0.000000  0.000000  0.000000  -29.324174240219367  -1.1143692224054427  1.9767583621946494  57.330427270785734  3.898501888725947  -7.598096363852242  26.2015426607977  -2.0888856928530726  17.233177629079236  25.710231409371744  0.000000
0.136  0.000000  0.000000  0.000000  -29.21837437387128  -1.1946217980466243  2.187820232102977  57.58011876058663  3.799610261381371  -7.640963974596538  26.95551633147274  -0.6607238510797595  15.151303323887229  25.7288305086607  0.000000
0.17  0.000000  0.000000  0.000000  -29.15601952503723  -1.247268933669298  2.4404243333511597  57.873060835039176  3.749519631674225  -7.651077378682723  27.743791713414847  0.8515796416876565  13.011948474815483  25.743334362659994  0.000000
0.20400000000000001  0.000000  0.000000  0.000000  -29.1117720141464  -1.279671025966095  2.7090242884013156  58.21279242477908  3.758769193497349  -7.635893283009775  28.537615456544316  2.442761192137866  10.808710841764418  25.754417229639294  0.000000
0.23800000000000002  0.000000  0.000000  0.000000  -29.10960610104917  -1.2857683468718673  2.992487770622461  58.592701378334716  3.8328301039055908  -7.5891103722488  29.35568476759179  4.10049703079585  8.573157291614466  25.755693918294714  0.000000
0.272  0.000000  0.000000  0.000000  -29.129411090057474  -1.2638482079655546  3.286646033988202  58.99680165312323  3.9676520052927575  -7.515348733485936  30.185834382761264  5.809576060953097  6.303027560792132  25.747215064216213  0.000000
0.30600000000000005  0.000000  0.000000  0.000000  -29.17901289045743  -1.2118106082648485  3.587376269286534  59.42870432221268  4.16419775875712  -7.415760244834225  31.03828049362723  7.5663545607269365  4.019415741572768  25.72577298923031  0.000000
0.34  0.000000  0.000000  0.000000  -29.25102652076613  -1.1217990428943965  3.8865561923852603  59.862645127928644  4.422570686298177  -7.285600608415745  31.901333831012515  9.35599189320551  1.7207936322941473  25.693263977099274  0.000000
0.374  0.000000  0.000000  0.000000  -29.34727353917395  -0.9918571798131375  4.190319199692031  60.30096228092411  4.728316281338004  -7.131071826973219  32.77340053020011  11.178322494213306  -0.5844055776940457  25.64933657303669  0.000000
0.40800000000000003  0.000000  0.000000  0.000000  -29.460213131864712  -0.8247481316530347  4.510376159009155  60.735387854216675  5.06337750802417  -6.954613249984582  33.65309685262608  13.025267348038799  -2.889351097917019  25.597245312562382  0.000000
0.44200000000000006  0.000000  0.000000  0.000000  -29.58480263584273  -0.6269440795560859  4.847418208006628  61.169505114932576  5.415863236913031  -6.761896749366603  34.537625668378  14.895384363191203  -5.191254072260025  25.538194548444014  0.000000
0.47600000000000003  0.000000  0.000000  0.000000  -29.71625523566741  -0.4075626559780712  5.200144670549389  61.594837772590665  5.788165358761812  -6.562173939884524  35.42543264261084  16.77931322853011  -7.484454231905303  25.47745744700816  0.000000
0.51  0.000000  0.000000  0.000000  -29.84695117242379  -0.1746672050617351  5.563096523861117  62.00820274407456  6.185998568918833  -6.363470761013913  36.31598696049848  18.67003191697272  -9.762752591402169  25.413775570572874  0.000000
0.544  0.000000  0.000000  0.000000  -29.971970819204028  0.06482263440061323  5.933907470293423  62.4072624934407  6.610602571864393  -6.1713435771544605  37.20606767277201  20.560048635591066  -12.022625303981503  25.34877136035335  0.000000
0.5780000000000001  0.000000  0.000000  0.000000  -30.09040292947132  0.3055603763818684  6.313634702175907  62.79022421311486  7.053186970923047  -5.989858578361759  38.09113457716065  22.445973062689966  -14.262335665825747  25.27864461965383  0.000000
0.6120000000000001  0.000000  0.000000  0.000000  -30.201438604845134  0.5427343972831737  6.703639184084749  63.15440992007378  7.507651586424482  -5.823801546858936  38.97083845666  24.323881268195553  -16.474410579026745  25.204531398468205  0.000000
0.646  0.000000  0.000000  0.000000  -30.302145619753784  0.7737016980281127  7.104904136840582  63.499003990798336  7.968532188217169  -5.6753221102333535  39.84530149856683  26.188911328073495  -18.651060602573285  25.12649585828524  0.000000
0.68  0.000000  0.000000  0.000000  -30.393057226456097  0.9961377336816329  7.516980884496651  63.82646094426481  8.429193480931024  -5.5427451014812155  40.71182656235282  28.03687678631125  -20.788459749354317  25.045590371583913  0.000000
0.7140000000000001  0.000000  0.000000  0.000000  -30.47714111013433  1.210470611636184  7.93787428917841  64.1397468551255  8.881282485799671  -5.420410302779203  41.5680679931618  29.864589426106974  -22.883117330667332  24.962446045807464  0.000000
0.748  0.000000  0.000000  0.000000  -30.55692070343865  1.418728212204619  8.364922421604179  64.44150881203109  9.31683436857972  -5.301778838513553  42.41240107298943  31.66835460914719  -24.930944403925057  24.877517677188887  0.000000
0.782  0.000000  0.000000  0.000000  -30.63478476954584  1.6236556632838406  8.79666391786166  64.73182254700326  9.72810823108283  -5.1814855314883  43.24318579656415  33.44364683714141  -26.927552887443657  24.791141985108133  0.000000
0.8160000000000001  0.000000  0.000000  0.000000  -30.715697067823093  1.830224645112041  9.230261669650979  65.00992778273155  10.110876887757255  -5.0538369311238664  44.05857922718845  35.18524669896643  -28.868840681759057  24.70426051135524  0.000000
0.8500000000000001  0.000000  0.000000  0.000000  -30.803020293809045  2.0439125265984845  9.658290225477268  65.2716139314636  10.468237695618472  -4.912182736296763  44.855906235611705  36.887417023921806  -30.751018987405462  24.616987162202047  0.000000
0.8840000000000001  0.000000  0.000000  0.000000  -30.897159996175066  2.2674883934910466  10.083348717652061  65.51308827201576  10.79696216676574  -4.757047686217162  45.631183709574444  38.54557275181388  -32.5708711918254  24.528999601670293  0.000000
0.918  0.000000  0.000000  0.000000  -30.997313519855567  2.4958301627562025  10.522638358229026  65.73714271364355  11.08358001600699  -4.601092782755261  46.37847003027106  40.158338280207325  -34.32584796026005  24.43869810245433  0.000000
0.9520000000000001  0.000000  0.000000  0.000000  -31.09968679766052  2.716892774897105  10.97780509301441  65.94936585964929  11.331940683159193  -4.45484121175658  47.09044328555933  41.723554220503836  -36.01454409761189  24.345975993820527  0.000000
0.9860000000000001  0.000000  0.000000  0.000000  -31.203210309194564  2.926589923183039  11.43420348210074  66.15205971896884  11.55542875420002  -4.3147465380304055  47.766940404563  43.237893950542606  -37.632739668935315  24.251285092175518  0.000000
1.02  0.000000  0.000000  0.000000  -31.309498764618834  3.1297553716722786  11.883258654769204  66.34432781358541  11.756521128466165  -4.173995539834697  48.413041526828636  44.69728074522198  -39.17561617037014  24.15736211035182  0.000000
1.054  0.000000  0.000000  0.000000  -31.417898879278123  3.329479825065313  12.321537356557531  66.52405890759451  11.936040178186676  -4.030246315251057  49.031454824689085  46.096110630206695  -40.63919051509284  24.066740804656654  0.000000
1.088  0.000000  0.000000  0.000000  -31.527261231408076  3.5256415020936145  12.746181310058475  66.69092166168161  12.097079720023505  -3.8840269698531347  49.622320653781706  47.42969669259093  -42.02046135811006  23.97944905247946  0.000000
1.122  0.000000  0.000000  0.000000  -31.637112944863322  3.717495382508225  13.154661899643216  66.84498257321833  12.242306065990439  -3.735980291934532  50.18504068257819  48.69513908241226  -43.31709296178824  23.895779854483333  0.000000
1.1560000000000001  0.000000  0.000000  0.000000  -31.74713309518671  3.903955817228957  13.545589678209899  66.98789948631425  12.374140850628269  -3.586825456146005  50.71841407711566  49.890713020670795  -44.52709343681195  23.815887611311854  0.000000
1.1900000000000002  0.000000  0.000000  0.000000  -31.857657007196373  4.083734950162289  13.918378448082676  67.1225955428974  12.494520560742673  -3.436743748830602  51.22028533399945  51.015738653234884  -45.649064933342224  23.740448801204117  0.000000
